<?xml version="1.0" standalone="no"?><!DOCTYPE svg PUBLIC "-//W3C//DTD SVG 1.1//EN" "http://www.w3.org/Graphics/SVG/1.1/DTD/svg11.dtd"><svg t="1615864631571" class="icon" viewBox="0 0 1095 1024" version="1.1" xmlns="http://www.w3.org/2000/svg" p-id="1213" width="34.21875" height="32" xmlns:xlink="http://www.w3.org/1999/xlink"><defs><style type="text/css"></style></defs><path d="M297.984 128h512l85.504 149.504H212.992L297.984 128z" fill="#BBE2FF" p-id="1214"></path><path d="M297.984 213.504h512c47.104 0 85.504 38.4 85.504 85.504v512c0 47.104-38.4 85.504-85.504 85.504h-512c-47.104 0-85.504-38.4-85.504-85.504v-512c0.512-47.616 38.4-85.504 85.504-85.504z m128 139.776c-23.552 0-42.496 18.944-42.496 42.496 0 23.552 18.944 42.496 42.496 42.496h256c23.552 0 42.496-18.944 42.496-42.496 0-23.552-18.944-42.496-42.496-42.496h-256z" fill="#0091EB" p-id="1215"></path><path d="M553.984 570.88m-65.024 0a65.024 65.024 0 1 0 130.048 0 65.024 65.024 0 1 0-130.048 0Z" fill="#FFB541" p-id="1216"></path></svg>